<?xml version="1.0" encoding="UTF-8" standalone="no"?>
<svg
   width="192px"
   height="192px"
   viewBox="0 0 244 244"
   version="1.1"
   id="svg8"
   >
  <g
     id="layer1"
     transform="translate(91.559006,22.00083)">
    <circle
       style="fill:#00d4aa;stroke:#000000;stroke-width:0.123624"
       id="path876"
       cx="28.440992"
       cy="99.999168"
       r="119.93819" />
    <rect
       style="fill:#000000;stroke:#000000;stroke-width:0.0870099"
       id="rect849"
       width="142.20038"
       height="112.80074"
       x="-53.563232"
       y="19.598562" />
    <rect
       style="fill:#d45500;stroke:#000000;stroke-width:0.0817129"
       id="rect851"
       width="147.01653"
       height="12.847223"
       x="-53.563232"
       y="132.39931" />
    <path
       style="fill:#ffcc00;stroke-width:0.352778"
       d="m 116.25217,170.23213 c 0.42387,-0.17078 0.94531,-0.63681 1.15874,-1.03561 0.27287,-0.50987 0.38475,-8.79151 0.37693,-27.90125 -0.0107,-26.20806 -0.0356,-27.22406 -0.69698,-28.52057 -0.89557,-1.75546 -2.84107,-3.43872 -4.51016,-3.90223 -0.85651,-0.23786 -8.39679,-0.37076 -21.10704,-0.37202 l -19.774483,-0.002 -1.744962,0.87688 c -1.467503,0.73745 -3.063152,2.44302 -10.035237,10.72653 l -8.290277,9.84966 -14.111111,-14.03125 c -15.460606,-15.37312 -15.564643,-15.45505 -19.182743,-15.1074 -5.052991,0.48553 -8.163267,5.32245 -6.561352,10.20382 0.579829,1.76686 1.738958,3.01464 17.592135,18.93775 10.950987,10.9993 17.597123,17.41176 18.735293,18.07655 1.395074,0.81486 2.190962,1.03098 3.806416,1.0336 3.720945,0.006 4.227008,-0.41466 12.939381,-10.75642 3.032167,-3.59924 5.606848,-6.35 5.943536,-6.35 0.547028,0 0.608566,1.47858 0.778196,18.69723 0.101311,10.28347 0.220373,18.73283 0.264583,18.77635 0.04421,0.0435 0.548753,0.32134 1.121202,0.61737 0.899841,0.46532 3.85038,0.53519 21.784028,0.51586 11.408765,-0.0123 21.090025,-0.1621 21.513905,-0.33288 z M 98.853622,100.1777 c 6.282558,-1.520685 11.721148,-7.210445 12.916388,-13.512935 1.73753,-9.16195 -3.84097,-17.956885 -12.883745,-20.312231 -9.193886,-2.394701 -18.93414,3.548722 -21.137975,12.898221 -1.398047,5.93105 0.174918,11.59536 4.458896,16.05668 4.364627,4.54531 10.533024,6.350005 16.646436,4.870265 z"
       id="path847" />
    <rect
       style="fill:#ffffff;stroke:#000000;stroke-width:0.1"
       id="rect853"
       width="63.610149"
       height="4.2763157"
       x="-35.382412"
       y="37.779388" />
    <rect
       style="fill:#ffffff;stroke:#000000;stroke-width:0.1"
       id="rect853-0"
       width="63.610153"
       height="4.2763157"
       x="-34.580616"
       y="61.299103" />
    <rect
       style="fill:#ffffff;stroke:#000000;stroke-width:0.1"
       id="rect853-1"
       width="63.610153"
       height="4.2763157"
       x="-34.580616"
       y="84.818825" />
  </g>
</svg>
